<?xml version="1.0" encoding="UTF-8" standalone="no"?>
<!DOCTYPE svg PUBLIC "-//W3C//DTD SVG 1.1//EN" "http://www.w3.org/Graphics/SVG/1.1/DTD/svg11.dtd">
<!-- Created with Vectornator (http://vectornator.io/) -->
<svg height="100%" stroke-miterlimit="10" style="fill-rule:nonzero;clip-rule:evenodd;stroke-linecap:round;stroke-linejoin:round;" version="1.1" viewBox="0 0 1280 1002" width="100%" xml:space="preserve" xmlns="http://www.w3.org/2000/svg" xmlns:vectornator="http://vectornator.io" xmlns:xlink="http://www.w3.org/1999/xlink">
<defs/>
<g id="Untitled" vectornator:layerName="Untitled">
<g opacity="1" vectornator:layerName="g">
<path d="M306 106.6C227.1 112.3 154.3 144.6 99.1 198.4C71.4 225.5 51.4 252.9 35.5 285.5C16.4 324.7 9.1 353.7 1.8 420C-0.1 438 0.1 477.1 2.3 490.5C7.2 520.1 16.1 552.5 25.7 575C34 594.5 52.1 626.7 56.7 630.2C57.7 630.9 60 634.5 61.8 638.2C63.7 641.9 66.1 645.9 67.3 647.2C68.6 648.5 69.6 650.7 69.7 652C70 656 78.4 672.1 83.9 679.4C93.2 691.7 100.1 698.8 119.1 716.1C142 736.8 155.3 752.7 163.7 769.5C168.9 779.8 188 834.2 188 838.7C188 839.9 189.1 844.4 190.4 848.7C191.8 853 194.1 865 195.6 875.5C198 892.2 198.3 897.3 198.2 917.5C198.1 944.6 196.9 962 193.9 982.4L191.7 997.4L193.9 999.1C195.9 1000.7 207.1 1000.9 386.8 1001.2C559.9 1001.5 586.1 1001.3 587.8 999.5C588.1 999.3 589.6 989.4 591.1 977.8C594.2 954 596.6 938.7 600.6 916.5C604 897.3 604.2 882.5 601.1 861C598.6 844.1 597.1 820.9 598.2 818.8C598.6 818.1 599.4 815 600 811.9C602.5 798.7 611.6 791.8 629.5 789.5C632.3 789.1 638.8 787.8 644 786.4C653.9 783.9 666.2 782.2 694 779.5C721.4 776.9 735 773 741.3 766.1C746.3 760.5 751.7 750.2 754.4 740.8C758.8 725.7 759.2 721.6 757.5 710C755 692.1 752.3 685.5 743.2 675.2C740.2 671.7 735.6 666 733 662.4C730.4 658.9 728 656.3 727.7 656.7C727.3 657 727 655.2 727 652.7C727 650.1 726.5 645 725.9 641.3C724.9 635.6 725 633.2 726.4 626.5C728.1 618.2 732.2 608 733.8 608C734.3 608 739.4 616 745.1 625.7C762.6 655.9 811.8 736 826.6 758.5C830.9 765.1 835.9 773.3 837.6 776.7C839.4 780.1 844.4 788.1 848.9 794.4C860.1 810.1 860.9 812.2 860.7 824.3L860.5 834.1L856.2 837.7C851 842 849 845.7 849 851C849 854.4 849.7 855.8 853.2 859.6C857.2 863.9 867.2 870 870.4 870C872.9 870 872.9 872.6 870.4 877.9C868.2 882.7 868.2 883.4 869.4 885.9C871.5 889.9 878.8 896.8 881.3 897.2C882.9 897.4 883.8 898.7 884.8 902.5C886.5 908.6 889.8 912.3 895.5 914.4C898.3 915.5 900.6 917.4 902.3 919.8C903.6 921.8 907.4 926.4 910.6 930C919.6 940.1 939.1 966.7 943.2 974.5C945.2 978.3 948 984.5 949.3 988.2C952.8 997.4 954.6 999.8 958.9 1001C963 1002.1 999.9 1001.3 1004.2 1000C1005.7 999.5 1007 999.5 1007.2 1000C1007.6 1001 1178.8 1001.6 1181.2 1000.5C1183.8 999.4 1184.1 997.1 1182.5 989.5C1181.5 984.6 1181 976.2 1181 961.6C1181 939 1179.7 927.5 1177.4 928.4C1176.3 928.8 1176.4 928.4 1177.6 926.4C1179.3 923.8 1179.3 922.6 1177 906.5C1176.5 902.6 1176.1 895.6 1176 890.8C1176 882.8 1174.4 866.8 1172 850.9C1169.7 835.4 1160.8 815.7 1153 808.7C1150.4 806.4 1142.7 801.2 1135.9 797.1C1119.3 787.1 1105.5 777.7 1100 772.5C1087.5 760.7 1057.1 739.2 1042.9 732.1C1028.4 724.8 1010.8 724.3 967 730C935.1 734.1 928.8 735.3 912 741C904 743.6 893.3 747.1 888.2 748.6L879 751.3L876.2 748.7C874.7 747.3 872.1 743.6 870.5 740.5C867.9 735.7 867.7 734.8 869 734C870.7 732.8 871.7 733 878.8 736.1C882.6 737.8 884.3 738.1 885.1 737.3C886.7 735.7 881.8 727 872.1 714C861 698.9 815.5 631.6 807.6 618.2C791.8 591.8 780.5 582.8 765.3 584.5C759.7 585.2 759.4 585 756.6 582.1C753.1 578.4 749.5 578.1 743.4 580.9C737.7 583.5 732.7 588.2 730.5 593C728.4 597.7 725.1 598.4 723 594.5C721.9 592.4 722 591.8 723.4 589.8C724.3 588.5 726.2 586 727.5 584.1C730.3 580.3 730.7 575.6 728.6 570.7C727.9 568.9 723.6 562.5 719.2 556.5C700.1 530.5 700.3 523.7 720.7 503.3C734.1 490 737 484.7 737 474.2C737 470 736.2 465.1 735 461.6C731.1 450.3 719.2 435.5 704 423.2C700.4 420.3 695.5 416 693 413.7C690.5 411.4 682.6 405.8 675.5 401.2C668.3 396.6 659.7 390.8 656.4 388.2C653 385.6 644.6 379.3 637.6 374.2C630.7 369.1 625 364.5 625 364C625 363.5 623.8 360.5 622.3 357.3C619.9 352.1 619.7 350.6 619.9 342.1C620.1 335.3 619.8 331.2 618.5 327.1C605.5 285 587.5 249.7 564.1 220C553.4 206.5 529.5 182.8 516 172.3C470.3 136.9 419.1 115.6 362.9 108.5C350.7 107 316.7 105.8 306 106.6Z" fill="#121113" fill-rule="nonzero" opacity="1" stroke="none" vectornator:layerName="path"/>
</g>
</g>
</svg>
