<svg xmlns="http://www.w3.org/2000/svg" viewBox="0 0 1440 320">
  <path fill="#fef9ef" fill-opacity="1" d="M0,192L6.9,170.7C13.7,149,27,107,41,112C54.9,117,69,171,82,170.7C96,171,110,117,123,101.3C137.1,85,151,107,165,138.7C178.3,171,192,213,206,224C219.4,235,233,213,247,213.3C260.6,213,274,235,288,245.3C301.7,256,315,256,329,224C342.9,192,357,128,370,96C384,64,398,64,411,58.7C425.1,53,439,43,453,48C466.3,53,480,75,494,90.7C507.4,107,521,117,535,112C548.6,107,562,85,576,106.7C589.7,128,603,192,617,192C630.9,192,645,128,658,117.3C672,107,686,149,699,165.3C713.1,181,727,171,741,170.7C754.3,171,768,181,782,208C795.4,235,809,277,823,266.7C836.6,256,850,192,864,160C877.7,128,891,128,905,138.7C918.9,149,933,171,946,181.3C960,192,974,192,987,160C1001.1,128,1015,64,1029,37.3C1042.3,11,1056,21,1070,69.3C1083.4,117,1097,203,1111,245.3C1124.6,288,1138,288,1152,261.3C1165.7,235,1179,181,1193,165.3C1206.9,149,1221,171,1234,160C1248,149,1262,107,1275,101.3C1289.1,96,1303,128,1317,170.7C1330.3,213,1344,267,1358,250.7C1371.4,235,1385,149,1399,101.3C1412.6,53,1426,43,1433,37.3L1440,32L1440,0L1433.1,0C1426.3,0,1413,0,1399,0C1385.1,0,1371,0,1358,0C1344,0,1330,0,1317,0C1302.9,0,1289,0,1275,0C1261.7,0,1248,0,1234,0C1220.6,0,1207,0,1193,0C1179.4,0,1166,0,1152,0C1138.3,0,1125,0,1111,0C1097.1,0,1083,0,1070,0C1056,0,1042,0,1029,0C1014.9,0,1001,0,987,0C973.7,0,960,0,946,0C932.6,0,919,0,905,0C891.4,0,878,0,864,0C850.3,0,837,0,823,0C809.1,0,795,0,782,0C768,0,754,0,741,0C726.9,0,713,0,699,0C685.7,0,672,0,658,0C644.6,0,631,0,617,0C603.4,0,590,0,576,0C562.3,0,549,0,535,0C521.1,0,507,0,494,0C480,0,466,0,453,0C438.9,0,425,0,411,0C397.7,0,384,0,370,0C356.6,0,343,0,329,0C315.4,0,302,0,288,0C274.3,0,261,0,247,0C233.1,0,219,0,206,0C192,0,178,0,165,0C150.9,0,137,0,123,0C109.7,0,96,0,82,0C68.6,0,55,0,41,0C27.4,0,14,0,7,0L0,0Z"></path>
</svg>